<svg width="130" height="16" viewBox="0 0 130 16" fill="none" xmlns="http://www.w3.org/2000/svg">
<path d="M3.67115 15H0.420662L1.86646 3.15674C1.99635 2.15186 2.25953 1.38281 2.65601 0.849609C3.0525 0.316406 3.65064 0.0498047 4.45045 0.0498047C5.14771 0.0498047 5.73219 0.237793 6.20387 0.61377C6.68238 0.989746 7.00025 1.52979 7.15748 2.23389L8.73658 9.18604H8.7776L10.3157 2.23389C10.4729 1.52979 10.7874 0.989746 11.259 0.61377C11.7376 0.237793 12.3254 0.0498047 13.0227 0.0498047C13.8225 0.0498047 14.4207 0.316406 14.8171 0.849609C15.2136 1.38281 15.4768 2.15186 15.6067 3.15674L17.0525 15H13.7097L12.6843 3.61816H12.6433L9.9773 14.2002C9.88844 14.5625 9.74488 14.8086 9.54664 14.9385C9.3484 15.0615 9.0442 15.123 8.63404 15.123C8.22388 15.123 7.91627 15.0615 7.71119 14.9385C7.50611 14.8086 7.36597 14.5625 7.29078 14.2002L4.85035 3.61816H4.80933L3.67115 15ZM26.4526 7.93506C26.0014 7.46338 25.3998 7.22754 24.6479 7.22754C23.8959 7.22754 23.2944 7.46338 22.8432 7.93506C22.3989 8.3999 22.1767 9.05273 22.1767 9.89355C22.1767 10.7344 22.3989 11.3906 22.8432 11.8623C23.2944 12.3271 23.8959 12.5596 24.6479 12.5596C25.3998 12.5596 26.0014 12.3271 26.4526 11.8623C26.9037 11.3906 27.1293 10.7344 27.1293 9.89355C27.1293 9.05273 26.9037 8.3999 26.4526 7.93506ZM21.9203 5.2793C22.7133 4.78711 23.6225 4.54102 24.6479 4.54102C25.6733 4.54102 26.5825 4.78711 27.3754 5.2793C28.1752 5.76465 28.7802 6.41064 29.1904 7.21729C29.6074 8.02393 29.8159 8.91602 29.8159 9.89355C29.8159 10.8711 29.6074 11.7666 29.1904 12.5801C28.7802 13.3867 28.1752 14.0361 27.3754 14.5283C26.5825 15.0137 25.6733 15.2563 24.6479 15.2563C23.6225 15.2563 22.7133 15.0137 21.9203 14.5283C21.1274 14.0361 20.5224 13.3867 20.1054 12.5801C19.6953 11.7666 19.4902 10.8711 19.4902 9.89355C19.4902 8.91602 19.6953 8.02393 20.1054 7.21729C20.5224 6.41064 21.1274 5.76465 21.9203 5.2793ZM39.4415 7.93506C38.9903 7.46338 38.3888 7.22754 37.6368 7.22754C36.8849 7.22754 36.2833 7.46338 35.8321 7.93506C35.3878 8.3999 35.1656 9.05273 35.1656 9.89355C35.1656 10.7344 35.3878 11.3906 35.8321 11.8623C36.2833 12.3271 36.8849 12.5596 37.6368 12.5596C38.3888 12.5596 38.9903 12.3271 39.4415 11.8623C39.8927 11.3906 40.1183 10.7344 40.1183 9.89355C40.1183 9.05273 39.8927 8.3999 39.4415 7.93506ZM34.9093 5.2793C35.7023 4.78711 36.6114 4.54102 37.6368 4.54102C38.6622 4.54102 39.5714 4.78711 40.3644 5.2793C41.1642 5.76465 41.7692 6.41064 42.1793 7.21729C42.5963 8.02393 42.8048 8.91602 42.8048 9.89355C42.8048 10.8711 42.5963 11.7666 42.1793 12.5801C41.7692 13.3867 41.1642 14.0361 40.3644 14.5283C39.5714 15.0137 38.6622 15.2563 37.6368 15.2563C36.6114 15.2563 35.7023 15.0137 34.9093 14.5283C34.1163 14.0361 33.5113 13.3867 33.0944 12.5801C32.6842 11.7666 32.4791 10.8711 32.4791 9.89355C32.4791 8.91602 32.6842 8.02393 33.0944 7.21729C33.5113 6.41064 34.1163 5.76465 34.9093 5.2793ZM51.159 4.79736H54.1736L51.5486 13.2363C51.3572 13.8584 51.0975 14.3506 50.7693 14.7129C50.448 15.0752 49.9798 15.2563 49.3645 15.2563C49.0364 15.2563 48.7459 15.2017 48.493 15.0923C48.24 14.9829 48.0315 14.8257 47.8675 14.6206C47.7034 14.4155 47.5667 14.207 47.4573 13.9951C47.3548 13.7764 47.2625 13.5234 47.1805 13.2363L44.7093 4.79736H47.6932L49.3953 11.5547H49.4363L51.159 4.79736ZM59.1133 15H56.4267V4.79736H59.1133V15ZM56.6216 0.51123C56.9223 0.203613 57.3052 0.0498047 57.77 0.0498047C58.2348 0.0498047 58.6177 0.203613 58.9184 0.51123C59.2192 0.812012 59.3696 1.22559 59.3696 1.75195C59.3696 2.27832 59.2192 2.69531 58.9184 3.00293C58.6177 3.30371 58.2348 3.4541 57.77 3.4541C57.3052 3.4541 56.9223 3.30371 56.6216 3.00293C56.3276 2.69531 56.1806 2.27832 56.1806 1.75195C56.1806 1.22559 56.3276 0.812012 56.6216 0.51123ZM69.4362 4.79736V7.30957H68.8927C68.2843 7.30957 67.7785 7.54541 67.3752 8.01709C66.9718 8.48193 66.7702 9.10742 66.7702 9.89355C66.7702 10.6797 66.9718 11.3086 67.3752 11.7803C67.7785 12.2451 68.2843 12.4775 68.8927 12.4775H69.4567V15H68.7697C68.1476 15 67.5255 14.8188 66.9035 14.4565C66.2882 14.0942 65.8097 13.5952 65.4679 12.9595C65.1535 13.6226 64.7228 14.1284 64.1759 14.4771C63.6291 14.8257 62.9899 15 62.2585 15H61.5612V12.4775H62.1354C62.7438 12.4775 63.2462 12.2451 63.6427 11.7803C64.0461 11.3086 64.2477 10.6797 64.2477 9.89355C64.2477 9.10742 64.0461 8.48193 63.6427 8.01709C63.2462 7.54541 62.7438 7.30957 62.1354 7.30957H61.5612V4.79736H62.2585C62.8805 4.79736 63.4992 4.97852 64.1144 5.34082C64.7296 5.69629 65.2082 6.19189 65.55 6.82764C65.8644 6.16455 66.2951 5.66211 66.8419 5.32031C67.3957 4.97168 68.0382 4.79736 68.7697 4.79736H69.4362ZM72.5711 12.0981C72.8993 11.7632 73.3162 11.5957 73.8221 11.5957C74.328 11.5957 74.745 11.7632 75.0731 12.0981C75.4012 12.4331 75.5653 12.8467 75.5653 13.3389C75.5653 13.8311 75.4012 14.2446 75.0731 14.5796C74.745 14.9146 74.328 15.082 73.8221 15.082C73.3162 15.082 72.8993 14.9146 72.5711 14.5796C72.243 14.2446 72.0789 13.8311 72.0789 13.3389C72.0789 12.8467 72.243 12.4331 72.5711 12.0981ZM85.6011 4.79736V7.48389H83.8169C83.0786 7.48389 82.4873 7.70947 82.043 8.16064C81.6055 8.60498 81.3867 9.18262 81.3867 9.89355C81.3867 10.6045 81.6089 11.1855 82.0532 11.6367C82.4976 12.0879 83.0855 12.3135 83.8169 12.3135H85.6011V15H83.7349C82.1694 15 80.9356 14.542 80.0332 13.626C79.1377 12.71 78.69 11.4658 78.69 9.89355C78.69 8.32129 79.1377 7.08057 80.0332 6.17139C80.9356 5.25537 82.1694 4.79736 83.7349 4.79736H85.6011ZM91.2175 15H88.531V0.295898H91.2175V15ZM101.161 7.93506C100.71 7.46338 100.108 7.22754 99.3563 7.22754C98.6044 7.22754 98.0028 7.46338 97.5516 7.93506C97.1073 8.3999 96.8851 9.05273 96.8851 9.89355C96.8851 10.7344 97.1073 11.3906 97.5516 11.8623C98.0028 12.3271 98.6044 12.5596 99.3563 12.5596C100.108 12.5596 100.71 12.3271 101.161 11.8623C101.612 11.3906 101.838 10.7344 101.838 9.89355C101.838 9.05273 101.612 8.3999 101.161 7.93506ZM96.6288 5.2793C97.4218 4.78711 98.3309 4.54102 99.3563 4.54102C100.382 4.54102 101.291 4.78711 102.084 5.2793C102.884 5.76465 103.489 6.41064 103.899 7.21729C104.316 8.02393 104.524 8.91602 104.524 9.89355C104.524 10.8711 104.316 11.7666 103.899 12.5801C103.489 13.3867 102.884 14.0361 102.084 14.5283C101.291 15.0137 100.382 15.2563 99.3563 15.2563C98.3309 15.2563 97.4218 15.0137 96.6288 14.5283C95.8358 14.0361 95.2308 13.3867 94.8138 12.5801C94.4037 11.7666 94.1986 10.8711 94.1986 9.89355C94.1986 8.91602 94.4037 8.02393 94.8138 7.21729C95.2308 6.41064 95.8358 5.76465 96.6288 5.2793ZM107.536 4.79736H110.223V10.9292C110.223 11.4487 110.356 11.8521 110.623 12.1392C110.889 12.4194 111.269 12.5596 111.761 12.5596C112.253 12.5596 112.632 12.4194 112.899 12.1392C113.166 11.8521 113.299 11.4487 113.299 10.9292V4.79736H115.985V11.8521C115.985 12.939 115.603 13.7798 114.837 14.3745C114.071 14.9624 113.046 15.2563 111.761 15.2563C110.476 15.2563 109.45 14.9624 108.685 14.3745C107.919 13.7798 107.536 12.939 107.536 11.8521V4.79736ZM126.349 0.295898H129.036V9.87305C129.036 10.8643 128.824 11.77 128.4 12.5903C127.983 13.4038 127.388 14.0532 126.616 14.5386C125.843 15.0171 124.972 15.2563 124.001 15.2563C123.044 15.2563 122.179 15.0171 121.407 14.5386C120.641 14.0532 120.05 13.4038 119.633 12.5903C119.216 11.77 119.008 10.8643 119.008 9.87305C119.008 8.95703 119.209 8.0957 119.613 7.28906C120.016 6.47559 120.593 5.81592 121.345 5.31006C122.104 4.79736 122.948 4.54102 123.878 4.54102C124.227 4.54102 124.763 4.64014 125.488 4.83838V7.66846C125.023 7.46338 124.541 7.36084 124.042 7.36084C123.359 7.36084 122.795 7.6001 122.35 8.07861C121.913 8.55029 121.694 9.15527 121.694 9.89355C121.694 10.6318 121.909 11.2402 122.34 11.7188C122.778 12.1973 123.318 12.4365 123.96 12.4365C124.664 12.4365 125.239 12.2007 125.683 11.729C126.127 11.2505 126.349 10.6387 126.349 9.89355V0.295898Z" fill="black"/>
</svg>
